P3
20 20
255
253 174 97 213 62 79 254 224 139 213 62 79 230 245 152 94 79 162 244 109 67 171 221 164 230 245 152 253 174 97 230 245 152 50 136 189 94 79 162 102 194 165 94 79 162 253 174 97 244 109 67 253 174 97 50 136 189 254 224 139 
171 221 164 244 109 67 171 221 164 254 224 139 253 174 97 253 174 97 50 136 189 253 174 97 244 109 67 102 194 165 94 79 162 230 245 152 158 1 66 244 109 67 50 136 189 50 136 189 254 224 139 213 62 79 94 79 162 102 194 165 
213 62 79 171 221 164 94 79 162 253 174 97 94 79 162 94 79 162 253 174 97 102 194 165 230 245 152 213 62 79 158 1 66 230 245 152 50 136 189 244 109 67 158 1 66 94 79 162 102 194 165 254 224 139 94 79 162 254 224 139 
254 224 139 230 245 152 94 79 162 244 109 67 253 174 97 158 1 66 102 194 165 50 136 189 213 62 79 171 221 164 254 224 139 158 1 66 171 221 164 244 109 67 50 136 189 171 221 164 244 109 67 158 1 66 50 136 189 94 79 162 
94 79 162 50 136 189 171 221 164 244 109 67 50 136 189 158 1 66 253 174 97 254 224 139 50 136 189 244 109 67 230 245 152 253 174 97 254 224 139 244 109 67 213 62 79 213 62 79 102 194 165 158 1 66 171 221 164 102 194 165 
94 79 162 50 136 189 244 109 67 213 62 79 254 224 139 50 136 189 158 1 66 50 136 189 171 221 164 230 245 152 213 62 79 253 174 97 244 109 67 50 136 189 244 109 67 253 174 97 158 1 66 171 221 164 171 221 164 254 224 139 
102 194 165 158 1 66 94 79 162 253 174 97 50 136 189 254 224 139 254 224 139 171 221 164 158 1 66 94 79 162 230 245 152 230 245 152 158 1 66 230 245 152 50 136 189 244 109 67 244 109 67 253 174 97 213 62 79 102 194 165 
244 109 67 230 245 152 253 174 97 230 245 152 94 79 162 254 224 139 158 1 66 50 136 189 213 62 79 244 109 67 50 136 189 254 224 139 50 136 189 213 62 79 213 62 79 213 62 79 102 194 165 254 224 139 230 245 152 158 1 66 
244 109 67 50 136 189 254 224 139 213 62 79 158 1 66 244 109 67 102 194 165 158 1 66 213 62 79 94 79 162 253 174 97 50 136 189 230 245 152 244 109 67 213 62 79 213 62 79 158 1 66 230 245 152 230 245 152 230 245 152 
94 79 162 171 221 164 254 224 139 254 224 139 171 221 164 244 109 67 244 109 67 94 79 162 254 224 139 50 136 189 94 79 162 230 245 152 254 224 139 94 79 162 253 174 97 158 1 66 253 174 97 50 136 189 213 62 79 94 79 162 
171 221 164 254 224 139 254 224 139 244 109 67 50 136 189 50 136 189 213 62 79 158 1 66 94 79 162 102 194 165 230 245 152 171 221 164 171 221 164 230 245 152 94 79 162 253 174 97 253 174 97 254 224 139 254 224 139 171 221 164 
213 62 79 244 109 67 50 136 189 254 224 139 102 194 165 230 245 152 171 221 164 254 224 139 50 136 189 244 109 67 253 174 97 253 174 97 102 194 165 50 136 189 171 221 164 102 194 165 50 136 189 253 174 97 213 62 79 171 221 164 
230 245 152 244 109 67 102 194 165 213 62 79 244 109 67 158 1 66 213 62 79 94 79 162 158 1 66 94 79 162 213 62 79 254 224 139 230 245 152 171 221 164 254 224 139 50 136 189 230 245 152 171 221 164 171 221 164 94 79 162 
244 109 67 253 174 97 254 224 139 171 221 164 158 1 66 253 174 97 254 224 139 50 136 189 171 221 164 213 62 79 158 1 66 254 224 139 230 245 152 254 224 139 253 174 97 244 109 67 171 221 164 171 221 164 254 224 139 50 136 189 
244 109 67 213 62 79 253 174 97 253 174 97 94 79 162 253 174 97 171 221 164 158 1 66 102 194 165 244 109 67 171 221 164 158 1 66 244 109 67 254 224 139 94 79 162 213 62 79 254 224 139 213 62 79 244 109 67 102 194 165 
253 174 97 102 194 165 244 109 67 254 224 139 230 245 152 50 136 189 102 194 165 158 1 66 158 1 66 171 221 164 171 221 164 158 1 66 171 221 164 253 174 97 213 62 79 230 245 152 230 245 152 50 136 189 50 136 189 213 62 79 
102 194 165 254 224 139 50 136 189 50 136 189 213 62 79 230 245 152 244 109 67 158 1 66 94 79 162 244 109 67 158 1 66 94 79 162 171 221 164 244 109 67 50 136 189 244 109 67 94 79 162 244 109 67 230 245 152 254 224 139 
158 1 66 94 79 162 213 62 79 102 194 165 213 62 79 230 245 152 253 174 97 171 221 164 254 224 139 253 174 97 171 221 164 102 194 165 50 136 189 94 79 162 244 109 67 230 245 152 94 79 162 158 1 66 253 174 97 171 221 164 
158 1 66 158 1 66 213 62 79 213 62 79 253 174 97 253 174 97 158 1 66 230 245 152 253 174 97 158 1 66 230 245 152 254 224 139 50 136 189 50 136 189 244 109 67 158 1 66 254 224 139 171 221 164 171 221 164 230 245 152 
244 109 67 213 62 79 253 174 97 50 136 189 254 224 139 213 62 79 254 224 139 171 221 164 94 79 162 230 245 152 213 62 79 94 79 162 254 224 139 213 62 79 230 245 152 213 62 79 213 62 79 171 221 164 158 1 66 94 79 162 
